<?xml version="1.0" encoding="UTF-8"?>
<svg id="Layer_2" xmlns="http://www.w3.org/2000/svg" viewBox="0 0 32.21 31.92">
  <defs>
    <style>
      .cls-1 {
        fill: #231f20;
      }
    </style>
  </defs>
  <path class="cls-1" d="M30.58,11.64c-.19-.87-.46-1.71-.8-2.51-.62.11-1.28.07-1.92-.14-2.1-.69-3.25-2.95-2.56-5.05.06-.19.14-.37.23-.55-1.59-1.32-3.46-2.31-5.51-2.88-.18,2.04-1.9,3.64-3.98,3.64s-3.8-1.6-3.98-3.64c-1.98.55-3.79,1.49-5.35,2.74.83,1.5.61,3.43-.65,4.72-1.01,1.03-2.44,1.4-3.76,1.1-.4.96-.71,1.97-.91,3.02,1.55.55,2.66,2.03,2.66,3.77,0,1.56-.9,2.91-2.2,3.57.32,1,.74,1.95,1.26,2.85.52-.2,1.1-.29,1.69-.25,2.21.15,3.88,2.05,3.73,4.26-.03.45-.14.88-.3,1.28,1.26.78,2.65,1.38,4.13,1.75.65-1.52,2.21-2.54,3.96-2.42,1.55.11,2.82,1.08,3.4,2.42,1.61-.41,3.12-1.08,4.47-1.97-.72-1.59-.33-3.52,1.07-4.7,1.12-.95,2.61-1.17,3.91-.72.5-.93.9-1.92,1.2-2.95-1.96-.91-2.85-3.22-1.99-5.22.44-1.02,1.25-1.76,2.21-2.14ZM20.8,15.26c-.19,2.66-2.5,4.66-5.15,4.47-2.66-.19-4.66-2.5-4.47-5.15.19-2.66,2.5-4.66,5.15-4.47,2.66.19,4.66,2.5,4.47,5.15Z"/>
</svg>